<svg xmlns:dc="http://purl.org/dc/elements/1.1/" xmlns:cc="http://creativecommons.org/ns#" xmlns:rdf="http://www.w3.org/1999/02/22-rdf-syntax-ns#" xmlns:svg="http://www.w3.org/2000/svg" xmlns="http://www.w3.org/2000/svg" viewBox="0 0 1333.3333 1333.3333" height="1333.3333" width="1333.3333" xml:space="preserve" id="svg2" version="1.1"><metadata id="metadata8"><rdf:rdf><cc:work rdf:about=""><dc:format>image/svg+xml</dc:format><dc:type rdf:resource="http://purl.org/dc/dcmitype/StillImage"></dc:type></cc:work></rdf:rdf></metadata><defs id="defs6"></defs><g transform="matrix(1.3333333,0,0,-1.3333333,0,1333.3333)" id="g10"><g transform="scale(0.1)" id="g12"><path id="path16" style="fill: rgb(121, 40, 202); fill-opacity: 1; fill-rule: evenodd; visibility: visible; opacity: 1;" d="m 3895.08,3519.41 c 300.99,162.4 614.26,414.08 1004.56,774.38 l 100.51,92.67 100.37,-92.67 c 390.2,-360.3 703.41,-611.98 1004.37,-774.38 292.57,-157.88 577.36,-232.88 917.87,-244.67 821.27,-28.49 1353.46,394.25 1597.33,951.73 104.97,240.04 157.63,506.39 157.63,773.48 0,267.21 -52.58,533.47 -157.55,773.62 -243.86,557.37 -776.06,980.11 -1597.41,951.71 -340.51,-11.72 -625.21,-86.77 -917.87,-244.68 -300.8,-162.4 -614.17,-413.99 -1004.37,-774.38 l -100.37,-92.75 -100.51,92.75 c -390.3,360.39 -703.57,612.09 -1004.56,774.46 -292.54,157.83 -577.43,232.88 -917.83,244.6 -821.39,28.4 -1353.58,-394.34 -1597.42,-951.71 -105,-240.15 -157.57,-506.41 -157.57,-773.52 h -0.6 c 0,-266.16 52.85,-532.45 158.26,-773.5 243.83,-557.49 776.11,-980.3 1597.33,-951.81 340.4,11.79 625.2,86.79 917.83,244.67 z m 1104.99,464.31 C 4637.5,3655.51 4334.43,3419.5 4035.63,3258.21 3701.29,3077.8 3375.8,2992.19 2986.5,2978.64 2024,2945.19 1397.52,3446.87 1108.25,4108.09 986.582,4386.37 925.68,4693.42 925.59,5000.05 H 925 c 0,305.78 61.07,612.75 183.16,891.99 289.29,661.1 915.68,1162.7 1878.34,1129.32 389.3,-13.46 714.79,-99.07 1049.13,-279.48 298.71,-161.21 601.87,-397.39 964.44,-725.55 362.42,328.16 665.59,564.18 964.28,725.47 334.34,180.41 659.78,266.1 1049.12,279.56 962.69,33.38 1589.09,-468.22 1878.34,-1129.32 122.1,-279.24 183.19,-586.21 183.19,-892.09 0,-305.85 -61.18,-612.9 -183.27,-891.98 C 8602.45,3446.79 7976,2945.19 7013.47,2978.64 c -389.34,13.55 -714.95,99.16 -1049.12,279.57 -298.77,161.29 -601.79,397.3 -964.28,725.51 v 0" data-index="0"></path><path id="path18" style="fill: rgb(121, 40, 202); fill-opacity: 1; fill-rule: evenodd; visibility: visible; opacity: 1;" d="m 5035.48,5786.45 c 128.74,-126.48 257.24,-255.74 384.8,-387.08 124.21,-127.83 249.17,-259.53 374.61,-395.2 l -108.52,-100.43 c -119.72,129.51 -244.09,260.44 -372.25,392.3 -124.72,128.43 -252.43,256.85 -382.62,384.76 l 103.98,105.65" data-index="1"></path><path id="path20" style="fill: rgb(121, 40, 202); fill-opacity: 1; fill-rule: evenodd; visibility: visible; opacity: 1;" d="m 6369.07,5703.11 c 223.35,127.83 468.39,212.35 721.68,213.35 444.81,1.87 731.89,-231.28 859.45,-530.4 49.71,-116.71 74.64,-242.87 74.64,-368.07 0,-125.12 -25.02,-251.27 -74.73,-367.96 -127.63,-299.12 -414.55,-531.94 -859.36,-530.07 -253.38,1.07 -498.25,85.6 -721.77,213.51 -271.31,155.11 -513.58,376.32 -699.8,586.69 l -86.77,98.07 86.77,98.11 c 186.14,210.3 428.57,431.5 699.89,586.77 z m 722.85,-82.74 c -195.72,-0.75 -392.14,-70.1 -575.42,-174.91 -199.93,-114.44 -382.86,-269.89 -534.87,-427.23 151.93,-157.3 334.85,-312.75 534.79,-427.11 183.28,-104.88 379.7,-174.24 575.5,-175.08 306.21,-1.26 501.11,152.5 585.36,350.11 33.47,78.44 50.32,164.88 50.32,251.84 0,87.04 -16.78,173.48 -50.23,251.96 -84.26,197.66 -279.24,351.69 -585.45,350.42 v 0" data-index="2"></path><path id="path22" style="fill: rgb(121, 40, 202); fill-opacity: 1; fill-rule: evenodd; visibility: visible; opacity: 1;" d="m 3483.48,5445.46 c -183.28,104.81 -379.68,174.16 -575.41,174.91 -306.21,1.27 -501.18,-152.76 -585.46,-350.42 -33.43,-78.48 -50.19,-164.92 -50.19,-251.96 0,-86.96 16.85,-173.4 50.27,-251.84 84.28,-197.61 279.17,-351.37 585.38,-350.11 195.81,0.84 392.21,70.2 575.48,175.08 199.88,114.36 382.81,269.81 534.82,427.11 -151.92,157.26 -335.04,312.79 -534.89,427.23 z m -574.23,471 c 253.27,-1 498.3,-85.52 721.69,-213.35 271.32,-155.27 513.72,-376.47 699.86,-586.77 l 86.88,-98.11 -86.88,-98.07 c -186.22,-210.37 -428.47,-431.58 -699.78,-586.69 -223.55,-127.91 -468.42,-212.44 -721.77,-213.51 -444.83,-1.87 -731.72,230.95 -859.39,530.07 -49.71,116.69 -74.73,242.84 -74.73,367.96 0,125.2 24.93,251.36 74.66,368.07 127.58,299.12 414.55,532.27 859.46,530.4 v 0" data-index="3"></path><path id="path24" style="fill: rgb(121, 40, 202); fill-opacity: 1; fill-rule: evenodd; visibility: visible; opacity: 1;" d="m 4346.65,5097.46 c 65.05,-71.3 123.6,-136.34 182.16,-201.21 176.36,-195.9 348.17,-386.59 548.37,-585.04 L 4972.7,4206.07 c -205.6,203.8 -377.75,394.85 -554.27,590.92 -60.66,67.31 -122.6,136.07 -181.48,200.53 l 109.7,99.94" data-index="4"></path><path id="path26" style="fill: rgb(121, 40, 202); fill-opacity: 1; fill-rule: evenodd; visibility: visible; opacity: 1;" d="m 7002.61,6458.17 c 279.67,22.84 556.05,-30.15 790.03,-159.84 219.17,-121.34 400.67,-309.73 512.56,-565.22 l -135.83,-59.15 c -98,223.79 -256.83,388.78 -448.7,494.95 -207.43,114.92 -454.57,161.87 -706.43,141.32 l -11.63,147.94" data-index="5"></path><path id="path28" style="fill: rgb(121, 40, 202); fill-opacity: 1; fill-rule: evenodd; visibility: visible; opacity: 1;" d="m 3001.15,3541.67 c -279.64,-22.82 -556.1,30.24 -790,159.85 -219.17,121.31 -400.67,309.73 -512.55,565.23 l 135.82,59.14 c 98,-223.82 256.83,-388.78 448.67,-494.94 207.46,-114.96 454.6,-161.89 706.43,-141.33 l 11.63,-147.95" data-index="6"></path></g></g></svg>